<mxfile host="app.diagrams.net" modified="2023-11-18T10:10:54.837Z" agent="Mozilla/5.0 (Windows NT 10.0; Win64; x64) AppleWebKit/537.36 (KHTML, like Gecko) Chrome/119.0.0.0 Safari/537.36" etag="z3emzj8OF6KbqKNlUDQp" version="22.1.3" type="github">
  <diagram name="Page-1" id="-wi9lLE7llihJtHSZdaX">
    <mxGraphModel dx="3457" dy="2565" grid="1" gridSize="10" guides="1" tooltips="1" connect="1" arrows="1" fold="1" page="1" pageScale="1" pageWidth="850" pageHeight="1100" math="0" shadow="0">
      <root>
        <mxCell id="0" />
        <mxCell id="1" parent="0" />
        <mxCell id="7NiYTBTfJyk3ZzEcW5If-1" value="&lt;font style=&quot;font-size: 18px;&quot;&gt;User&lt;/font&gt;" style="shape=umlActor;verticalLabelPosition=bottom;verticalAlign=top;html=1;outlineConnect=0;fillColor=none;strokeWidth=3;" parent="1" vertex="1">
          <mxGeometry x="870" y="-170" width="150" height="220" as="geometry" />
        </mxCell>
        <mxCell id="7NiYTBTfJyk3ZzEcW5If-6" value="Login" style="ellipse;whiteSpace=wrap;html=1;fillColor=#ffe6cc;strokeColor=#d79b00;strokeWidth=2;fontSize=15;" parent="1" vertex="1">
          <mxGeometry x="725" y="-380" width="135" height="100" as="geometry" />
        </mxCell>
        <mxCell id="7NiYTBTfJyk3ZzEcW5If-7" value="Setup Profile" style="ellipse;whiteSpace=wrap;html=1;strokeWidth=2;" parent="1" vertex="1">
          <mxGeometry x="1390" y="50" width="120" height="80" as="geometry" />
        </mxCell>
        <mxCell id="7NiYTBTfJyk3ZzEcW5If-8" value="Watch news" style="ellipse;whiteSpace=wrap;html=1;strokeWidth=2;" parent="1" vertex="1">
          <mxGeometry x="1230" y="90" width="120" height="80" as="geometry" />
        </mxCell>
        <mxCell id="7NiYTBTfJyk3ZzEcW5If-9" value="Add favorite tournaments" style="ellipse;whiteSpace=wrap;html=1;strokeWidth=2;" parent="1" vertex="1">
          <mxGeometry x="1320" y="-150" width="120" height="80" as="geometry" />
        </mxCell>
        <mxCell id="7NiYTBTfJyk3ZzEcW5If-10" value="Register" style="ellipse;whiteSpace=wrap;html=1;fillColor=#d5e8d4;strokeColor=#82b366;strokeWidth=2;fontSize=15;" parent="1" vertex="1">
          <mxGeometry x="1010" y="-380" width="137.5" height="100" as="geometry" />
        </mxCell>
        <mxCell id="7NiYTBTfJyk3ZzEcW5If-11" value="Add Favortie team" style="ellipse;whiteSpace=wrap;html=1;strokeWidth=2;" parent="1" vertex="1">
          <mxGeometry x="1390" y="-60" width="120" height="80" as="geometry" />
        </mxCell>
        <mxCell id="7NiYTBTfJyk3ZzEcW5If-13" value="Answer the question" style="ellipse;whiteSpace=wrap;html=1;strokeWidth=2;" parent="1" vertex="1">
          <mxGeometry x="-70" y="70" width="120" height="80" as="geometry" />
        </mxCell>
        <mxCell id="7NiYTBTfJyk3ZzEcW5If-14" value="Vote to skip the current question" style="ellipse;whiteSpace=wrap;html=1;strokeWidth=2;" parent="1" vertex="1">
          <mxGeometry x="-110" y="200" width="120" height="80" as="geometry" />
        </mxCell>
        <mxCell id="7NiYTBTfJyk3ZzEcW5If-17" value="Accept people" style="ellipse;whiteSpace=wrap;html=1;strokeWidth=2;" parent="1" vertex="1">
          <mxGeometry x="1460" y="620" width="120" height="80" as="geometry" />
        </mxCell>
        <mxCell id="7NiYTBTfJyk3ZzEcW5If-18" value="Custom questions" style="ellipse;whiteSpace=wrap;html=1;strokeWidth=2;" parent="1" vertex="1">
          <mxGeometry x="1590" y="330" width="120" height="80" as="geometry" />
        </mxCell>
        <mxCell id="7NiYTBTfJyk3ZzEcW5If-19" value="Set the time per question" style="ellipse;whiteSpace=wrap;html=1;strokeWidth=2;" parent="1" vertex="1">
          <mxGeometry x="1700" y="420" width="120" height="80" as="geometry" />
        </mxCell>
        <mxCell id="7NiYTBTfJyk3ZzEcW5If-20" value="Update the settings of the room" style="ellipse;whiteSpace=wrap;html=1;strokeWidth=2;" parent="1" vertex="1">
          <mxGeometry x="1660" y="530" width="120" height="80" as="geometry" />
        </mxCell>
        <mxCell id="7NiYTBTfJyk3ZzEcW5If-27" value="Reject People" style="ellipse;whiteSpace=wrap;html=1;strokeWidth=2;" parent="1" vertex="1">
          <mxGeometry x="1410" y="720" width="120" height="80" as="geometry" />
        </mxCell>
        <mxCell id="-y-xAnCU4Q4wcCGIsI17-3" value="User and Password&lt;br&gt;Details" style="ellipse;whiteSpace=wrap;html=1;strokeWidth=2;" vertex="1" parent="1">
          <mxGeometry x="730" y="-540" width="120" height="80" as="geometry" />
        </mxCell>
        <mxCell id="-y-xAnCU4Q4wcCGIsI17-4" value="Details Validation" style="ellipse;whiteSpace=wrap;html=1;strokeWidth=2;" vertex="1" parent="1">
          <mxGeometry x="580" y="-500" width="120" height="80" as="geometry" />
        </mxCell>
        <mxCell id="-y-xAnCU4Q4wcCGIsI17-5" value="System Accesed" style="ellipse;whiteSpace=wrap;html=1;strokeWidth=2;" vertex="1" parent="1">
          <mxGeometry x="425" y="-590" width="120" height="80" as="geometry" />
        </mxCell>
        <mxCell id="-y-xAnCU4Q4wcCGIsI17-6" value="Stay signed in" style="ellipse;whiteSpace=wrap;html=1;strokeWidth=2;" vertex="1" parent="1">
          <mxGeometry x="470" y="-430" width="120" height="80" as="geometry" />
        </mxCell>
        <mxCell id="-y-xAnCU4Q4wcCGIsI17-7" value="Forgot Password" style="ellipse;whiteSpace=wrap;html=1;strokeWidth=2;" vertex="1" parent="1">
          <mxGeometry x="450" y="-320" width="120" height="80" as="geometry" />
        </mxCell>
        <mxCell id="-y-xAnCU4Q4wcCGIsI17-8" value="User Information&amp;nbsp;&lt;br&gt;Processing" style="ellipse;whiteSpace=wrap;html=1;strokeWidth=2;" vertex="1" parent="1">
          <mxGeometry x="970" y="-540" width="120" height="80" as="geometry" />
        </mxCell>
        <mxCell id="-y-xAnCU4Q4wcCGIsI17-9" value="Information &lt;br&gt;Validation" style="ellipse;whiteSpace=wrap;html=1;strokeWidth=2;" vertex="1" parent="1">
          <mxGeometry x="1130" y="-550" width="120" height="80" as="geometry" />
        </mxCell>
        <mxCell id="-y-xAnCU4Q4wcCGIsI17-10" value="Register Mail&lt;br&gt;Confirmation" style="ellipse;whiteSpace=wrap;html=1;strokeWidth=2;" vertex="1" parent="1">
          <mxGeometry x="1250" y="-480" width="120" height="80" as="geometry" />
        </mxCell>
        <mxCell id="-y-xAnCU4Q4wcCGIsI17-11" value="Requires Username&lt;br&gt;and Password" style="ellipse;whiteSpace=wrap;html=1;strokeWidth=2;" vertex="1" parent="1">
          <mxGeometry x="1270" y="-360" width="120" height="80" as="geometry" />
        </mxCell>
        <mxCell id="-y-xAnCU4Q4wcCGIsI17-18" value="Creates New &lt;br&gt;Account" style="ellipse;whiteSpace=wrap;html=1;strokeWidth=2;" vertex="1" parent="1">
          <mxGeometry x="1183" y="-260" width="120" height="80" as="geometry" />
        </mxCell>
        <mxCell id="-y-xAnCU4Q4wcCGIsI17-28" value="" style="endArrow=none;html=1;rounded=0;exitX=0.75;exitY=0.1;exitDx=0;exitDy=0;exitPerimeter=0;strokeWidth=2;" edge="1" parent="1" source="7NiYTBTfJyk3ZzEcW5If-1" target="7NiYTBTfJyk3ZzEcW5If-10">
          <mxGeometry width="50" height="50" relative="1" as="geometry">
            <mxPoint x="910" y="-210" as="sourcePoint" />
            <mxPoint x="960" y="-260" as="targetPoint" />
          </mxGeometry>
        </mxCell>
        <mxCell id="-y-xAnCU4Q4wcCGIsI17-29" value="" style="endArrow=none;html=1;rounded=0;entryX=1;entryY=1;entryDx=0;entryDy=0;exitX=0.25;exitY=0.1;exitDx=0;exitDy=0;exitPerimeter=0;strokeWidth=2;" edge="1" parent="1" source="7NiYTBTfJyk3ZzEcW5If-1" target="7NiYTBTfJyk3ZzEcW5If-6">
          <mxGeometry width="50" height="50" relative="1" as="geometry">
            <mxPoint x="770" y="-144" as="sourcePoint" />
            <mxPoint x="872" y="-290" as="targetPoint" />
          </mxGeometry>
        </mxCell>
        <mxCell id="-y-xAnCU4Q4wcCGIsI17-33" value="Login using different&amp;nbsp;&lt;br&gt;social apps" style="ellipse;whiteSpace=wrap;html=1;strokeWidth=2;" vertex="1" parent="1">
          <mxGeometry x="530" y="-230" width="120" height="80" as="geometry" />
        </mxCell>
        <mxCell id="-y-xAnCU4Q4wcCGIsI17-35" value="" style="endArrow=classic;html=1;rounded=0;entryX=1;entryY=1;entryDx=0;entryDy=0;exitX=0;exitY=0;exitDx=0;exitDy=0;strokeWidth=2;" edge="1" parent="1" source="-y-xAnCU4Q4wcCGIsI17-4" target="-y-xAnCU4Q4wcCGIsI17-5">
          <mxGeometry relative="1" as="geometry">
            <mxPoint x="520" y="-490" as="sourcePoint" />
            <mxPoint x="620" y="-490" as="targetPoint" />
          </mxGeometry>
        </mxCell>
        <mxCell id="-y-xAnCU4Q4wcCGIsI17-36" value="Include" style="edgeLabel;resizable=0;html=1;align=center;verticalAlign=middle;" connectable="0" vertex="1" parent="-y-xAnCU4Q4wcCGIsI17-35">
          <mxGeometry relative="1" as="geometry" />
        </mxCell>
        <mxCell id="-y-xAnCU4Q4wcCGIsI17-40" value="" style="endArrow=classic;html=1;rounded=0;entryX=1;entryY=1;entryDx=0;entryDy=0;exitX=0;exitY=0;exitDx=0;exitDy=0;strokeWidth=2;" edge="1" parent="1" source="7NiYTBTfJyk3ZzEcW5If-6" target="-y-xAnCU4Q4wcCGIsI17-4">
          <mxGeometry relative="1" as="geometry">
            <mxPoint x="751" y="-380" as="sourcePoint" />
            <mxPoint x="680" y="-414" as="targetPoint" />
          </mxGeometry>
        </mxCell>
        <mxCell id="-y-xAnCU4Q4wcCGIsI17-41" value="Include" style="edgeLabel;resizable=0;html=1;align=center;verticalAlign=middle;" connectable="0" vertex="1" parent="-y-xAnCU4Q4wcCGIsI17-40">
          <mxGeometry relative="1" as="geometry" />
        </mxCell>
        <mxCell id="-y-xAnCU4Q4wcCGIsI17-42" value="" style="endArrow=classic;html=1;rounded=0;entryX=0.5;entryY=1;entryDx=0;entryDy=0;exitX=0.5;exitY=0;exitDx=0;exitDy=0;strokeWidth=2;" edge="1" parent="1" source="7NiYTBTfJyk3ZzEcW5If-6" target="-y-xAnCU4Q4wcCGIsI17-3">
          <mxGeometry relative="1" as="geometry">
            <mxPoint x="801" y="-380" as="sourcePoint" />
            <mxPoint x="740" y="-443" as="targetPoint" />
          </mxGeometry>
        </mxCell>
        <mxCell id="-y-xAnCU4Q4wcCGIsI17-43" value="Include" style="edgeLabel;resizable=0;html=1;align=center;verticalAlign=middle;" connectable="0" vertex="1" parent="-y-xAnCU4Q4wcCGIsI17-42">
          <mxGeometry relative="1" as="geometry" />
        </mxCell>
        <mxCell id="-y-xAnCU4Q4wcCGIsI17-46" value="" style="endArrow=classic;html=1;rounded=0;entryX=1;entryY=0.5;entryDx=0;entryDy=0;exitX=0;exitY=0.5;exitDx=0;exitDy=0;strokeWidth=2;" edge="1" parent="1" source="7NiYTBTfJyk3ZzEcW5If-6" target="-y-xAnCU4Q4wcCGIsI17-6">
          <mxGeometry relative="1" as="geometry">
            <mxPoint x="651" y="-316" as="sourcePoint" />
            <mxPoint x="590" y="-380" as="targetPoint" />
          </mxGeometry>
        </mxCell>
        <mxCell id="-y-xAnCU4Q4wcCGIsI17-47" value="Include" style="edgeLabel;resizable=0;html=1;align=center;verticalAlign=middle;" connectable="0" vertex="1" parent="-y-xAnCU4Q4wcCGIsI17-46">
          <mxGeometry relative="1" as="geometry" />
        </mxCell>
        <mxCell id="-y-xAnCU4Q4wcCGIsI17-48" value="" style="endArrow=classic;html=1;rounded=0;entryX=1.007;entryY=0.433;entryDx=0;entryDy=0;exitX=0;exitY=1;exitDx=0;exitDy=0;strokeWidth=2;entryPerimeter=0;" edge="1" parent="1" source="7NiYTBTfJyk3ZzEcW5If-6" target="-y-xAnCU4Q4wcCGIsI17-7">
          <mxGeometry relative="1" as="geometry">
            <mxPoint x="707.5" y="-290" as="sourcePoint" />
            <mxPoint x="572.5" y="-340" as="targetPoint" />
          </mxGeometry>
        </mxCell>
        <mxCell id="-y-xAnCU4Q4wcCGIsI17-49" value="Include" style="edgeLabel;resizable=0;html=1;align=center;verticalAlign=middle;" connectable="0" vertex="1" parent="-y-xAnCU4Q4wcCGIsI17-48">
          <mxGeometry relative="1" as="geometry" />
        </mxCell>
        <mxCell id="-y-xAnCU4Q4wcCGIsI17-50" value="" style="endArrow=classic;html=1;rounded=0;exitX=0.5;exitY=1;exitDx=0;exitDy=0;strokeWidth=2;" edge="1" parent="1" source="7NiYTBTfJyk3ZzEcW5If-6" target="-y-xAnCU4Q4wcCGIsI17-33">
          <mxGeometry relative="1" as="geometry">
            <mxPoint x="762" y="-280" as="sourcePoint" />
            <mxPoint x="590" y="-253" as="targetPoint" />
          </mxGeometry>
        </mxCell>
        <mxCell id="-y-xAnCU4Q4wcCGIsI17-51" value="Include" style="edgeLabel;resizable=0;html=1;align=center;verticalAlign=middle;" connectable="0" vertex="1" parent="-y-xAnCU4Q4wcCGIsI17-50">
          <mxGeometry relative="1" as="geometry" />
        </mxCell>
        <mxCell id="-y-xAnCU4Q4wcCGIsI17-52" value="" style="endArrow=classic;html=1;rounded=0;entryX=0.5;entryY=1;entryDx=0;entryDy=0;exitX=0;exitY=0;exitDx=0;exitDy=0;strokeWidth=2;" edge="1" parent="1" source="7NiYTBTfJyk3ZzEcW5If-10" target="-y-xAnCU4Q4wcCGIsI17-8">
          <mxGeometry relative="1" as="geometry">
            <mxPoint x="1017" y="-360" as="sourcePoint" />
            <mxPoint x="1020" y="-452" as="targetPoint" />
          </mxGeometry>
        </mxCell>
        <mxCell id="-y-xAnCU4Q4wcCGIsI17-53" value="Include" style="edgeLabel;resizable=0;html=1;align=center;verticalAlign=middle;" connectable="0" vertex="1" parent="-y-xAnCU4Q4wcCGIsI17-52">
          <mxGeometry relative="1" as="geometry" />
        </mxCell>
        <mxCell id="-y-xAnCU4Q4wcCGIsI17-54" value="" style="endArrow=classic;html=1;rounded=0;entryX=0;entryY=1;entryDx=0;entryDy=0;exitX=0.5;exitY=0;exitDx=0;exitDy=0;strokeWidth=2;" edge="1" parent="1" source="7NiYTBTfJyk3ZzEcW5If-10" target="-y-xAnCU4Q4wcCGIsI17-9">
          <mxGeometry relative="1" as="geometry">
            <mxPoint x="1135" y="-368" as="sourcePoint" />
            <mxPoint x="1120" y="-460" as="targetPoint" />
          </mxGeometry>
        </mxCell>
        <mxCell id="-y-xAnCU4Q4wcCGIsI17-55" value="Include" style="edgeLabel;resizable=0;html=1;align=center;verticalAlign=middle;" connectable="0" vertex="1" parent="-y-xAnCU4Q4wcCGIsI17-54">
          <mxGeometry relative="1" as="geometry" />
        </mxCell>
        <mxCell id="-y-xAnCU4Q4wcCGIsI17-56" value="" style="endArrow=classic;html=1;rounded=0;entryX=0;entryY=0.5;entryDx=0;entryDy=0;exitX=1;exitY=0;exitDx=0;exitDy=0;strokeWidth=2;" edge="1" parent="1" source="7NiYTBTfJyk3ZzEcW5If-10" target="-y-xAnCU4Q4wcCGIsI17-10">
          <mxGeometry relative="1" as="geometry">
            <mxPoint x="1160" y="-368" as="sourcePoint" />
            <mxPoint x="1220" y="-470" as="targetPoint" />
          </mxGeometry>
        </mxCell>
        <mxCell id="-y-xAnCU4Q4wcCGIsI17-57" value="Include" style="edgeLabel;resizable=0;html=1;align=center;verticalAlign=middle;" connectable="0" vertex="1" parent="-y-xAnCU4Q4wcCGIsI17-56">
          <mxGeometry relative="1" as="geometry" />
        </mxCell>
        <mxCell id="-y-xAnCU4Q4wcCGIsI17-58" value="" style="endArrow=classic;html=1;rounded=0;entryX=0;entryY=0.5;entryDx=0;entryDy=0;exitX=1;exitY=0.5;exitDx=0;exitDy=0;strokeWidth=2;" edge="1" parent="1" source="7NiYTBTfJyk3ZzEcW5If-10" target="-y-xAnCU4Q4wcCGIsI17-11">
          <mxGeometry relative="1" as="geometry">
            <mxPoint x="1147.5" y="-320" as="sourcePoint" />
            <mxPoint x="1267.5" y="-392" as="targetPoint" />
          </mxGeometry>
        </mxCell>
        <mxCell id="-y-xAnCU4Q4wcCGIsI17-59" value="Include" style="edgeLabel;resizable=0;html=1;align=center;verticalAlign=middle;" connectable="0" vertex="1" parent="-y-xAnCU4Q4wcCGIsI17-58">
          <mxGeometry relative="1" as="geometry" />
        </mxCell>
        <mxCell id="-y-xAnCU4Q4wcCGIsI17-60" value="" style="endArrow=classic;html=1;rounded=0;entryX=0;entryY=0;entryDx=0;entryDy=0;exitX=1;exitY=1;exitDx=0;exitDy=0;strokeWidth=2;" edge="1" parent="1" source="7NiYTBTfJyk3ZzEcW5If-10" target="-y-xAnCU4Q4wcCGIsI17-18">
          <mxGeometry relative="1" as="geometry">
            <mxPoint x="1128" y="-310" as="sourcePoint" />
            <mxPoint x="1250" y="-290" as="targetPoint" />
          </mxGeometry>
        </mxCell>
        <mxCell id="-y-xAnCU4Q4wcCGIsI17-61" value="Include" style="edgeLabel;resizable=0;html=1;align=center;verticalAlign=middle;" connectable="0" vertex="1" parent="-y-xAnCU4Q4wcCGIsI17-60">
          <mxGeometry relative="1" as="geometry" />
        </mxCell>
        <mxCell id="-y-xAnCU4Q4wcCGIsI17-62" value="&lt;font style=&quot;font-size: 18px;&quot;&gt;Simple Player&lt;/font&gt;" style="shape=umlActor;verticalLabelPosition=bottom;verticalAlign=top;html=1;outlineConnect=0;fillColor=none;strokeWidth=3;" vertex="1" parent="1">
          <mxGeometry x="420" y="180" width="150" height="220" as="geometry" />
        </mxCell>
        <mxCell id="-y-xAnCU4Q4wcCGIsI17-65" value="Play in a&lt;br&gt;room" style="ellipse;whiteSpace=wrap;html=1;strokeWidth=2;fontSize=15;fillColor=#fad7ac;strokeColor=#b46504;" vertex="1" parent="1">
          <mxGeometry x="100" y="150" width="160" height="110" as="geometry" />
        </mxCell>
        <mxCell id="-y-xAnCU4Q4wcCGIsI17-68" value="" style="endArrow=classic;html=1;rounded=0;exitX=0;exitY=0;exitDx=0;exitDy=0;strokeWidth=2;entryX=1;entryY=1;entryDx=0;entryDy=0;" edge="1" parent="1" source="-y-xAnCU4Q4wcCGIsI17-65" target="7NiYTBTfJyk3ZzEcW5If-13">
          <mxGeometry relative="1" as="geometry">
            <mxPoint x="105" y="130" as="sourcePoint" />
            <mxPoint x="60" y="30" as="targetPoint" />
          </mxGeometry>
        </mxCell>
        <mxCell id="-y-xAnCU4Q4wcCGIsI17-69" value="Include" style="edgeLabel;resizable=0;html=1;align=center;verticalAlign=middle;" connectable="0" vertex="1" parent="-y-xAnCU4Q4wcCGIsI17-68">
          <mxGeometry relative="1" as="geometry" />
        </mxCell>
        <mxCell id="-y-xAnCU4Q4wcCGIsI17-70" value="" style="endArrow=classic;html=1;rounded=0;exitX=0;exitY=0.5;exitDx=0;exitDy=0;strokeWidth=2;entryX=1;entryY=0.5;entryDx=0;entryDy=0;" edge="1" parent="1" source="-y-xAnCU4Q4wcCGIsI17-65" target="7NiYTBTfJyk3ZzEcW5If-14">
          <mxGeometry relative="1" as="geometry">
            <mxPoint x="60" y="147" as="sourcePoint" />
            <mxPoint x="-50" y="60" as="targetPoint" />
          </mxGeometry>
        </mxCell>
        <mxCell id="-y-xAnCU4Q4wcCGIsI17-71" value="Include" style="edgeLabel;resizable=0;html=1;align=center;verticalAlign=middle;" connectable="0" vertex="1" parent="-y-xAnCU4Q4wcCGIsI17-70">
          <mxGeometry relative="1" as="geometry" />
        </mxCell>
        <mxCell id="-y-xAnCU4Q4wcCGIsI17-74" value="" style="endArrow=none;html=1;rounded=0;entryX=1;entryY=0.5;entryDx=0;entryDy=0;strokeWidth=2;" edge="1" parent="1" target="-y-xAnCU4Q4wcCGIsI17-65">
          <mxGeometry width="50" height="50" relative="1" as="geometry">
            <mxPoint x="420" y="250" as="sourcePoint" />
            <mxPoint x="280" y="83" as="targetPoint" />
          </mxGeometry>
        </mxCell>
        <mxCell id="-y-xAnCU4Q4wcCGIsI17-80" value="Visit&lt;br style=&quot;font-size: 15px;&quot;&gt;Website" style="ellipse;whiteSpace=wrap;html=1;fillColor=#b1ddf0;strokeColor=#10739e;strokeWidth=2;fontSize=15;" vertex="1" parent="1">
          <mxGeometry x="1112.5" y="-100" width="137.5" height="100" as="geometry" />
        </mxCell>
        <mxCell id="-y-xAnCU4Q4wcCGIsI17-81" value="" style="endArrow=classic;html=1;rounded=0;entryX=0;entryY=0.5;entryDx=0;entryDy=0;exitX=1;exitY=0;exitDx=0;exitDy=0;strokeWidth=2;" edge="1" parent="1" source="-y-xAnCU4Q4wcCGIsI17-80" target="7NiYTBTfJyk3ZzEcW5If-9">
          <mxGeometry relative="1" as="geometry">
            <mxPoint x="1270" y="-33.5" as="sourcePoint" />
            <mxPoint x="1344" y="13.5" as="targetPoint" />
          </mxGeometry>
        </mxCell>
        <mxCell id="-y-xAnCU4Q4wcCGIsI17-82" value="Include" style="edgeLabel;resizable=0;html=1;align=center;verticalAlign=middle;" connectable="0" vertex="1" parent="-y-xAnCU4Q4wcCGIsI17-81">
          <mxGeometry relative="1" as="geometry" />
        </mxCell>
        <mxCell id="-y-xAnCU4Q4wcCGIsI17-83" value="" style="endArrow=classic;html=1;rounded=0;entryX=0;entryY=0.5;entryDx=0;entryDy=0;exitX=1;exitY=0.5;exitDx=0;exitDy=0;strokeWidth=2;" edge="1" parent="1" source="-y-xAnCU4Q4wcCGIsI17-80" target="7NiYTBTfJyk3ZzEcW5If-11">
          <mxGeometry relative="1" as="geometry">
            <mxPoint x="1295" y="25" as="sourcePoint" />
            <mxPoint x="1395" y="20" as="targetPoint" />
          </mxGeometry>
        </mxCell>
        <mxCell id="-y-xAnCU4Q4wcCGIsI17-84" value="Include" style="edgeLabel;resizable=0;html=1;align=center;verticalAlign=middle;" connectable="0" vertex="1" parent="-y-xAnCU4Q4wcCGIsI17-83">
          <mxGeometry relative="1" as="geometry" />
        </mxCell>
        <mxCell id="-y-xAnCU4Q4wcCGIsI17-85" value="" style="endArrow=classic;html=1;rounded=0;entryX=0;entryY=0;entryDx=0;entryDy=0;exitX=1;exitY=1;exitDx=0;exitDy=0;strokeWidth=2;" edge="1" parent="1" source="-y-xAnCU4Q4wcCGIsI17-80" target="7NiYTBTfJyk3ZzEcW5If-7">
          <mxGeometry relative="1" as="geometry">
            <mxPoint x="1275" y="60" as="sourcePoint" />
            <mxPoint x="1420" y="120" as="targetPoint" />
          </mxGeometry>
        </mxCell>
        <mxCell id="-y-xAnCU4Q4wcCGIsI17-86" value="Include" style="edgeLabel;resizable=0;html=1;align=center;verticalAlign=middle;" connectable="0" vertex="1" parent="-y-xAnCU4Q4wcCGIsI17-85">
          <mxGeometry relative="1" as="geometry" />
        </mxCell>
        <mxCell id="-y-xAnCU4Q4wcCGIsI17-87" value="" style="endArrow=classic;html=1;rounded=0;entryX=0.5;entryY=0;entryDx=0;entryDy=0;exitX=0.5;exitY=1;exitDx=0;exitDy=0;strokeWidth=2;" edge="1" parent="1" source="-y-xAnCU4Q4wcCGIsI17-80" target="7NiYTBTfJyk3ZzEcW5If-8">
          <mxGeometry relative="1" as="geometry">
            <mxPoint x="1207" y="33" as="sourcePoint" />
            <mxPoint x="1330" y="130" as="targetPoint" />
          </mxGeometry>
        </mxCell>
        <mxCell id="-y-xAnCU4Q4wcCGIsI17-88" value="Include" style="edgeLabel;resizable=0;html=1;align=center;verticalAlign=middle;" connectable="0" vertex="1" parent="-y-xAnCU4Q4wcCGIsI17-87">
          <mxGeometry relative="1" as="geometry" />
        </mxCell>
        <mxCell id="-y-xAnCU4Q4wcCGIsI17-89" value="" style="endArrow=none;html=1;rounded=0;exitX=0;exitY=0;exitDx=0;exitDy=0;strokeWidth=2;entryX=1;entryY=0.3333333333333333;entryDx=0;entryDy=0;entryPerimeter=0;" edge="1" parent="1" source="-y-xAnCU4Q4wcCGIsI17-80" target="7NiYTBTfJyk3ZzEcW5If-1">
          <mxGeometry width="50" height="50" relative="1" as="geometry">
            <mxPoint x="1055" y="-35" as="sourcePoint" />
            <mxPoint x="1116" y="-150" as="targetPoint" />
          </mxGeometry>
        </mxCell>
        <mxCell id="-y-xAnCU4Q4wcCGIsI17-90" value="&lt;font style=&quot;font-size: 18px;&quot;&gt;Host Player&lt;/font&gt;" style="shape=umlActor;verticalLabelPosition=bottom;verticalAlign=top;html=1;outlineConnect=0;fillColor=none;strokeWidth=3;" vertex="1" parent="1">
          <mxGeometry x="930" y="520" width="150" height="220" as="geometry" />
        </mxCell>
        <mxCell id="-y-xAnCU4Q4wcCGIsI17-92" value="Update the settings" style="ellipse;whiteSpace=wrap;html=1;strokeWidth=2;fontSize=15;fillColor=#a20025;strokeColor=#6F0000;fontColor=#ffffff;" vertex="1" parent="1">
          <mxGeometry x="1430" y="450" width="150" height="100" as="geometry" />
        </mxCell>
        <mxCell id="-y-xAnCU4Q4wcCGIsI17-94" value="" style="endArrow=none;html=1;rounded=0;strokeWidth=2;exitX=0;exitY=0.3333333333333333;exitDx=0;exitDy=0;exitPerimeter=0;entryX=1;entryY=0.5;entryDx=0;entryDy=0;" edge="1" parent="1" source="-y-xAnCU4Q4wcCGIsI17-62" target="-y-xAnCU4Q4wcCGIsI17-120">
          <mxGeometry width="50" height="50" relative="1" as="geometry">
            <mxPoint x="450" y="272" as="sourcePoint" />
            <mxPoint x="276" y="350" as="targetPoint" />
          </mxGeometry>
        </mxCell>
        <mxCell id="-y-xAnCU4Q4wcCGIsI17-95" value="" style="endArrow=none;html=1;rounded=0;entryX=1;entryY=1;entryDx=0;entryDy=0;strokeWidth=2;exitX=0;exitY=0.3333333333333333;exitDx=0;exitDy=0;exitPerimeter=0;" edge="1" parent="1" source="-y-xAnCU4Q4wcCGIsI17-62" target="-y-xAnCU4Q4wcCGIsI17-119">
          <mxGeometry width="50" height="50" relative="1" as="geometry">
            <mxPoint x="550" y="215" as="sourcePoint" />
            <mxPoint x="372.42640687119274" y="88.28427124746167" as="targetPoint" />
          </mxGeometry>
        </mxCell>
        <mxCell id="-y-xAnCU4Q4wcCGIsI17-97" value="" style="endArrow=classic;html=1;rounded=0;exitX=1;exitY=0;exitDx=0;exitDy=0;strokeWidth=2;entryX=0;entryY=1;entryDx=0;entryDy=0;" edge="1" parent="1" source="-y-xAnCU4Q4wcCGIsI17-92" target="7NiYTBTfJyk3ZzEcW5If-18">
          <mxGeometry relative="1" as="geometry">
            <mxPoint x="1583" y="370" as="sourcePoint" />
            <mxPoint x="1493" y="400" as="targetPoint" />
          </mxGeometry>
        </mxCell>
        <mxCell id="-y-xAnCU4Q4wcCGIsI17-98" value="Include" style="edgeLabel;resizable=0;html=1;align=center;verticalAlign=middle;" connectable="0" vertex="1" parent="-y-xAnCU4Q4wcCGIsI17-97">
          <mxGeometry relative="1" as="geometry" />
        </mxCell>
        <mxCell id="-y-xAnCU4Q4wcCGIsI17-100" value="" style="endArrow=classic;html=1;rounded=0;exitX=1;exitY=0.5;exitDx=0;exitDy=0;strokeWidth=2;entryX=0;entryY=0.5;entryDx=0;entryDy=0;" edge="1" parent="1" source="-y-xAnCU4Q4wcCGIsI17-92" target="7NiYTBTfJyk3ZzEcW5If-19">
          <mxGeometry relative="1" as="geometry">
            <mxPoint x="1590" y="517" as="sourcePoint" />
            <mxPoint x="1660" y="460" as="targetPoint" />
          </mxGeometry>
        </mxCell>
        <mxCell id="-y-xAnCU4Q4wcCGIsI17-101" value="Include" style="edgeLabel;resizable=0;html=1;align=center;verticalAlign=middle;" connectable="0" vertex="1" parent="-y-xAnCU4Q4wcCGIsI17-100">
          <mxGeometry relative="1" as="geometry" />
        </mxCell>
        <mxCell id="-y-xAnCU4Q4wcCGIsI17-102" value="" style="endArrow=classic;html=1;rounded=0;exitX=1;exitY=1;exitDx=0;exitDy=0;strokeWidth=2;entryX=0;entryY=0;entryDx=0;entryDy=0;" edge="1" parent="1" source="-y-xAnCU4Q4wcCGIsI17-92" target="7NiYTBTfJyk3ZzEcW5If-20">
          <mxGeometry relative="1" as="geometry">
            <mxPoint x="1580" y="540" as="sourcePoint" />
            <mxPoint x="1690" y="540" as="targetPoint" />
          </mxGeometry>
        </mxCell>
        <mxCell id="-y-xAnCU4Q4wcCGIsI17-103" value="Include" style="edgeLabel;resizable=0;html=1;align=center;verticalAlign=middle;" connectable="0" vertex="1" parent="-y-xAnCU4Q4wcCGIsI17-102">
          <mxGeometry relative="1" as="geometry" />
        </mxCell>
        <mxCell id="-y-xAnCU4Q4wcCGIsI17-104" value="Create a room" style="ellipse;whiteSpace=wrap;html=1;strokeWidth=2;fontSize=15;fillColor=#d5e8d4;strokeColor=#82b366;" vertex="1" parent="1">
          <mxGeometry x="1200" y="370" width="150" height="100" as="geometry" />
        </mxCell>
        <mxCell id="-y-xAnCU4Q4wcCGIsI17-105" value="Delete a room" style="ellipse;whiteSpace=wrap;html=1;strokeWidth=2;fontSize=15;fillColor=#76608a;fontColor=#ffffff;strokeColor=#432D57;" vertex="1" parent="1">
          <mxGeometry x="1183" y="760" width="150" height="100" as="geometry" />
        </mxCell>
        <mxCell id="-y-xAnCU4Q4wcCGIsI17-106" value="Host a room" style="ellipse;whiteSpace=wrap;html=1;strokeWidth=2;fontSize=15;fillColor=#ffe6cc;strokeColor=#d79b00;" vertex="1" parent="1">
          <mxGeometry x="1200" y="540" width="170" height="120" as="geometry" />
        </mxCell>
        <mxCell id="-y-xAnCU4Q4wcCGIsI17-107" value="" style="endArrow=none;html=1;rounded=0;entryX=1;entryY=0.3333333333333333;entryDx=0;entryDy=0;strokeWidth=2;exitX=0;exitY=0.5;exitDx=0;exitDy=0;entryPerimeter=0;" edge="1" parent="1" source="-y-xAnCU4Q4wcCGIsI17-106" target="-y-xAnCU4Q4wcCGIsI17-90">
          <mxGeometry width="50" height="50" relative="1" as="geometry">
            <mxPoint x="1230" y="637" as="sourcePoint" />
            <mxPoint x="1100" y="680" as="targetPoint" />
          </mxGeometry>
        </mxCell>
        <mxCell id="-y-xAnCU4Q4wcCGIsI17-108" value="" style="endArrow=none;html=1;rounded=0;strokeWidth=2;exitX=0;exitY=1;exitDx=0;exitDy=0;" edge="1" parent="1" source="-y-xAnCU4Q4wcCGIsI17-104">
          <mxGeometry width="50" height="50" relative="1" as="geometry">
            <mxPoint x="1200" y="447" as="sourcePoint" />
            <mxPoint x="1080" y="590" as="targetPoint" />
          </mxGeometry>
        </mxCell>
        <mxCell id="-y-xAnCU4Q4wcCGIsI17-109" value="" style="endArrow=classic;html=1;rounded=0;exitX=1;exitY=0.5;exitDx=0;exitDy=0;strokeWidth=2;entryX=0;entryY=0.5;entryDx=0;entryDy=0;" edge="1" parent="1" source="-y-xAnCU4Q4wcCGIsI17-106" target="7NiYTBTfJyk3ZzEcW5If-17">
          <mxGeometry relative="1" as="geometry">
            <mxPoint x="1350" y="691.5" as="sourcePoint" />
            <mxPoint x="1490" y="740" as="targetPoint" />
          </mxGeometry>
        </mxCell>
        <mxCell id="-y-xAnCU4Q4wcCGIsI17-110" value="Include" style="edgeLabel;resizable=0;html=1;align=center;verticalAlign=middle;" connectable="0" vertex="1" parent="-y-xAnCU4Q4wcCGIsI17-109">
          <mxGeometry relative="1" as="geometry" />
        </mxCell>
        <mxCell id="-y-xAnCU4Q4wcCGIsI17-111" value="" style="endArrow=classic;html=1;rounded=0;exitX=1;exitY=1;exitDx=0;exitDy=0;strokeWidth=2;entryX=0;entryY=0;entryDx=0;entryDy=0;" edge="1" parent="1" source="-y-xAnCU4Q4wcCGIsI17-106" target="7NiYTBTfJyk3ZzEcW5If-27">
          <mxGeometry relative="1" as="geometry">
            <mxPoint x="1360" y="770" as="sourcePoint" />
            <mxPoint x="1460" y="800" as="targetPoint" />
          </mxGeometry>
        </mxCell>
        <mxCell id="-y-xAnCU4Q4wcCGIsI17-112" value="Include" style="edgeLabel;resizable=0;html=1;align=center;verticalAlign=middle;" connectable="0" vertex="1" parent="-y-xAnCU4Q4wcCGIsI17-111">
          <mxGeometry relative="1" as="geometry" />
        </mxCell>
        <mxCell id="-y-xAnCU4Q4wcCGIsI17-114" value="" style="endArrow=none;html=1;rounded=0;strokeWidth=2;exitX=0;exitY=0;exitDx=0;exitDy=0;entryX=1;entryY=0.3333333333333333;entryDx=0;entryDy=0;entryPerimeter=0;" edge="1" parent="1" source="-y-xAnCU4Q4wcCGIsI17-105" target="-y-xAnCU4Q4wcCGIsI17-90">
          <mxGeometry width="50" height="50" relative="1" as="geometry">
            <mxPoint x="1183" y="710" as="sourcePoint" />
            <mxPoint x="1058" y="855" as="targetPoint" />
          </mxGeometry>
        </mxCell>
        <mxCell id="-y-xAnCU4Q4wcCGIsI17-117" value="" style="endArrow=classic;html=1;rounded=1;exitX=0.75;exitY=0.1;exitDx=0;exitDy=0;exitPerimeter=0;entryX=0;entryY=0.3333333333333333;entryDx=0;entryDy=0;entryPerimeter=0;strokeWidth=4;shape=flexArrow;" edge="1" parent="1" source="-y-xAnCU4Q4wcCGIsI17-62" target="7NiYTBTfJyk3ZzEcW5If-1">
          <mxGeometry width="50" height="50" relative="1" as="geometry">
            <mxPoint x="640" y="110" as="sourcePoint" />
            <mxPoint x="850" y="-90" as="targetPoint" />
          </mxGeometry>
        </mxCell>
        <mxCell id="-y-xAnCU4Q4wcCGIsI17-118" value="" style="endArrow=diamondThin;html=1;rounded=1;exitX=0.25;exitY=0.1;exitDx=0;exitDy=0;exitPerimeter=0;entryX=1;entryY=0.3333333333333333;entryDx=0;entryDy=0;entryPerimeter=0;strokeWidth=4;endFill=0;shape=flexArrow;" edge="1" parent="1" source="-y-xAnCU4Q4wcCGIsI17-90" target="-y-xAnCU4Q4wcCGIsI17-62">
          <mxGeometry width="50" height="50" relative="1" as="geometry">
            <mxPoint x="683" y="460" as="sourcePoint" />
            <mxPoint x="1020" y="161" as="targetPoint" />
          </mxGeometry>
        </mxCell>
        <mxCell id="-y-xAnCU4Q4wcCGIsI17-119" value="Join a room" style="ellipse;whiteSpace=wrap;html=1;strokeWidth=2;fontSize=15;fillColor=#d5e8d4;strokeColor=#82b366;" vertex="1" parent="1">
          <mxGeometry x="210" width="150" height="100" as="geometry" />
        </mxCell>
        <mxCell id="-y-xAnCU4Q4wcCGIsI17-120" value="Leave a room" style="ellipse;whiteSpace=wrap;html=1;strokeWidth=2;fontSize=15;fillColor=#76608a;strokeColor=#432D57;fontColor=#ffffff;" vertex="1" parent="1">
          <mxGeometry x="120" y="310" width="150" height="100" as="geometry" />
        </mxCell>
        <mxCell id="-y-xAnCU4Q4wcCGIsI17-121" value="" style="endArrow=classic;html=1;rounded=0;exitX=1;exitY=0;exitDx=0;exitDy=0;strokeWidth=2;entryX=0;entryY=0.5;entryDx=0;entryDy=0;" edge="1" parent="1" source="-y-xAnCU4Q4wcCGIsI17-106" target="-y-xAnCU4Q4wcCGIsI17-92">
          <mxGeometry relative="1" as="geometry">
            <mxPoint x="1360" y="557" as="sourcePoint" />
            <mxPoint x="1430" y="500" as="targetPoint" />
          </mxGeometry>
        </mxCell>
        <mxCell id="-y-xAnCU4Q4wcCGIsI17-122" value="Include" style="edgeLabel;resizable=0;html=1;align=center;verticalAlign=middle;" connectable="0" vertex="1" parent="-y-xAnCU4Q4wcCGIsI17-121">
          <mxGeometry relative="1" as="geometry" />
        </mxCell>
      </root>
    </mxGraphModel>
  </diagram>
</mxfile>
